<?xml version="1.0"?>
<svg width="100" height="100" xmlns="http://www.w3.org/2000/svg" xmlns:svg="http://www.w3.org/2000/svg">
 <defs>
  <clipPath id="_clipPath_tyNba5h5UfDJ12C2g4v64qExT1GacA2z">
   <rect height="100" id="svg_1" width="100"/>
  </clipPath>
 </defs>
 <g class="layer">
  <title>Layer 1</title>
  <g clip-path="url(#_clipPath_tyNba5h5UfDJ12C2g4v64qExT1GacA2z)" id="svg_2">
   <path d="m50.232,92.915q-32.017,0.541 -39.442,-40.057l0,-37.891l39.21,-7.889l39.21,7.889l0,37.891q-6.961,39.515 -38.978,40.057z" fill="none" id="svg_4" stroke="rgb(0,0,0)" stroke-linecap="square" stroke-miterlimit="3" stroke-width="10"/>
   <g id="svg_5">
    <path d="m57.437671,78.625005l-10.947205,-1.359038c5.209363,-13.430238 13.34572,-13.145744 18.387375,-8.087409l-7.44017,9.446447zm8.680299,-11.146548c-6.447714,-7.383707 -16.928993,-4.474307 -21.253398,9.352292l-4.100427,-1.41539c3.689808,-18.992263 22.092301,-25.853213 28.8077,-12.77564l-3.453875,4.838738zm4.694785,-6.595455c-7.878736,-14.033534 -32.013899,-6.696456 -31.425104,13.501415l-4.767561,-1.800564c4.528245,-35.044633 33.523907,-32.984671 39.568004,-17.410625l-3.375339,5.709774zm4.154567,-8.724495c-22.462949,-28.778153 -40.453176,6.853282 -41.597233,13.979358l0,0l0,0l0.057542,0.476545l-0.308016,0.382617l-0.578798,4.001598c-0.905994,-0.251395 -1.415968,-1.158903 -1.799577,-2.051216c-2.100823,-4.889767 0.310272,-11.095903 2.233958,-16.058879c4.990301,-12.872242 18.6716,-19.344967 29.695844,-18.764825c5.776699,0.303883 18.720554,2.497661 14.658812,10.719099l-2.362532,7.315703zm1.28122,-13.632631c-7.040352,-13.098774 -23.271523,-8.50184 -34.471776,-1.620253c-7.137383,4.385596 -12.360105,13.666484 -14.195787,22.234626l0,0l0,0l-0.833785,5.550024l-2.33663,-4.740588c-2.593873,-9.709088 4.668746,-20.979033 11.598529,-27.183789c7.358522,-6.585991 17.015313,-9.609635 25.717594,-9.599966c8.364931,0.009669 16.896845,4.279237 14.521855,15.359946l0,0l0,0z" fill="rgb(1,1,1)" fill-rule="evenodd" id="svg_6"/>
   </g>
  </g>
 </g>
</svg>